<svg width="97" height="100" viewBox="0 0 97 100" fill="none" xmlns="http://www.w3.org/2000/svg">
<path d="M0 0H96.242V100H0V0Z" fill="#F7DF1E"/>
<path d="M25.0002 83.6576L32.3653 79.0263C33.7861 81.644 35.0787 83.8587 38.179 83.8587C41.1509 83.8587 43.0246 82.6508 43.0246 77.9524V46H52.0689V78.0852C52.0689 87.8186 46.5779 92.2489 38.5668 92.2489C31.3317 92.2489 27.1318 88.3554 25 83.6568" fill="black"/>
<path d="M57.2868 82.5603L64.651 78.13C66.5896 81.4195 69.1091 83.8359 73.5665 83.8359C77.314 83.8359 79.7037 81.889 79.7037 79.2039C79.7037 75.9819 77.2489 74.8406 73.1142 72.9617L70.8537 71.9541C64.3284 69.0682 59.9998 65.4435 59.9998 57.7909C59.9998 50.7427 65.168 45.3724 73.2437 45.3724C78.9935 45.3724 83.1281 47.4535 86.0995 52.8908L79.0577 57.5894C77.5071 54.7032 75.8279 53.5622 73.2439 53.5622C70.5951 53.5622 68.9153 55.3074 68.9153 57.5894C68.9153 60.4087 70.5951 61.5501 74.4709 63.2955L76.7318 64.3024C84.4197 67.726 88.7483 71.2162 88.7483 79.0697C88.7483 87.5281 82.3527 92.1593 73.7605 92.1593C65.3621 92.1593 59.9353 87.9978 57.287 82.5603" fill="black"/>
</svg>
